<?xml version="1.0" encoding="UTF-8" standalone="no"?>
<svg
   version="1.1"
   id="Layer_1"
   x="0px"
   y="0px"
   width="819.96985"
   viewBox="0 0 819.96985 520.65411"
   enable-background="new 0 0 1080 1080"
   xml:space="preserve"
   sodipodi:docname="logo.svg"
   inkscape:version="1.4.2 (f4327f4, 2025-05-13)"
   height="520.65411"
   xmlns:inkscape="http://www.inkscape.org/namespaces/inkscape"
   xmlns:sodipodi="http://sodipodi.sourceforge.net/DTD/sodipodi-0.dtd"
   xmlns="http://www.w3.org/2000/svg"
   xmlns:svg="http://www.w3.org/2000/svg"><defs
   id="defs50" /><sodipodi:namedview
   id="namedview50"
   pagecolor="#ffffff"
   bordercolor="#000000"
   borderopacity="0.25"
   inkscape:showpageshadow="2"
   inkscape:pageopacity="0.0"
   inkscape:pagecheckerboard="0"
   inkscape:deskcolor="#d1d1d1"
   inkscape:zoom="0.64818122"
   inkscape:cx="400.351"
   inkscape:cy="264.5865"
   inkscape:window-width="1366"
   inkscape:window-height="697"
   inkscape:window-x="-8"
   inkscape:window-y="-8"
   inkscape:window-maximized="1"
   inkscape:current-layer="Layer_1" />































<path
   fill="#145D66"
   opacity="1"
   stroke="none"
   d="m 49.27608,164.48238 c -0.21901,-2.61593 -0.43804,-5.23187 -0.69684,-8.3229 -12.40398,0 -24.67308,0 -37.20897,0 0,-17.9122 0,-35.33515 0,-52.74713 0.29536,-0.19895 0.59703,-0.57334 0.83122,-0.53504 8.08566,1.32193 14.21338,-2.68597 20.57681,-6.8909 C 80.27595,64.6 127.90744,33.41619 175.44357,2.08785 c 2.80145,-1.84628 5.19891,-2.5686 8.69711,-1.759 119.58054,27.67532 239.19431,55.20703 358.80301,82.76071 25.12177,5.78717 50.24524,11.56687 75.35566,17.40302 1.37237,0.31897 2.94464,0.81189 3.89575,1.75592 17.73571,17.60434 35.39251,35.28824 53.0542,52.96704 0.33069,0.33099 0.52099,0.80224 1.05377,1.64728 -139.20404,0 -278.05695,0 -417.21814,0 0,-17.81888 0,-35.57224 0,-53.96753 117.21753,0 234.35242,0 351.4873,0 0.0357,-0.36481 0.0713,-0.72962 0.10694,-1.09442 -14.84546,-3.42804 -29.6897,-6.86151 -44.53656,-10.2833 C 449.61587,64.66161 333.08847,37.80828 216.56158,10.95275 206.18933,8.56231 195.8193,6.16213 184.78189,3.65853 c -0.7699,0.3338 -0.87341,0.77558 -0.97693,1.21732 13.35983,20.47796 26.715,40.95898 40.0817,61.43243 5.45806,8.36008 11.03357,16.64524 16.37338,25.0799 2.63202,4.1575 4.8338,8.60077 11.23443,6.64834 0,22.7356 0,44.79685 0,67.32099 -16.67703,0 -33.09628,0 -49.91684,0 0.65223,7.88595 1.2642,15.28512 1.97629,23.89474 -14.87039,-9.36407 -28.95346,-18.23233 -41.61364,-26.20459 -3.59421,1.05115 -5.81192,2.24832 -8.03852,2.26511 -19.63696,0.14776 -39.27548,0.0857 -59.27435,0.0857 0,-22.3566 0,-44.42563 0,-66.59064 0.13292,-0.0866 0.43721,-0.45086 0.66226,-0.40716 6.45267,1.25369 9.77905,-2.6517 13.3306,-7.22336 20.94095,-26.95596 42.1189,-53.72778 63.46304,-80.97778 0.39203,-0.54508 0.50632,-0.69763 0.83011,-1.07715 0.35849,-0.72199 0.47589,-1.24079 0.59326,-1.75958 -0.49194,0.33743 -0.98385,0.67489 -1.73312,1.04077 -0.52066,0.23974 -0.78403,0.45105 -1.0474,0.66235 -30.49533,19.96979 -60.9974,39.92935 -91.48323,59.91364 -15.31428,10.03894 -30.59976,20.12179 -45.89598,30.18829 -1.32025,0.86886 -2.62309,1.76416 -5.21252,3.50836 20.5457,0 39.57338,0 58.89459,0 0,17.92712 0,35.34659 0,53.23102 -11.46916,0 -22.90126,0 -35.11285,0 0,2.87533 0,5.30045 -0.44977,8.16342 -1.02995,0.42914 -1.61014,0.42044 -2.19032,0.41177 M 155.47925,36.32565 c -16.04175,20.41616 -32.08347,40.83233 -48.33512,61.51565 45.03971,0 89.06522,0 133.79895,0 -20.4667,-31.17291 -40.52441,-61.72284 -60.88629,-92.73605 -8.3211,10.58264 -16.21936,20.62753 -24.57754,31.2204 z"
   id="path2"
   style="fill:#ffffff;fill-opacity:1" /><path
   fill="#145D66"
   opacity="1"
   stroke="none"
   d="m 541.9407,407.2853 c 14.815,-15.1148 29.38245,-29.97705 44.08826,-44.98047 -19.67841,-26.0064 -39.14148,-51.72827 -59.0108,-77.98687 -20.51764,25.30102 -40.69763,50.18579 -61.17762,75.44036 18.73584,19.1305 37.34888,38.13556 56.45392,57.64301 -8.14288,4.31555 -6.32299,11.8855 -6.37127,18.87549 -0.0402,5.81769 -0.008,11.63598 -0.008,17.84741 -38.11566,0 -75.99622,0 -114.49378,0 0,-7.02393 -0.34399,-14.15686 0.1023,-21.24005 0.3999,-6.34784 -0.45539,-11.857 -6.44934,-15.51953 21.39538,-21.82428 42.38653,-43.23621 63.44549,-64.71735 1.52478,1.35358 2.86713,2.54517 4.59064,4.07514 20.5813,-25.38648 41.09161,-50.68537 61.89294,-76.34327 -4.52392,-2.27276 -8.54205,-4.29144 -12.96447,-6.51324 1.78289,-2.56915 3.729,-5.37341 6.12957,-8.83264 1.19928,5.08429 4.05463,7.51587 8.71082,7.45953 4.65619,-0.0563 7.33087,-3.66205 5.25287,-7.73755 -3.09992,-6.07971 -6.74738,-11.88031 -10.4079,-18.22613 1.93219,-0.39911 3.30743,-0.68323 6.00348,-1.24024 -1.27185,-2.81811 -2.01123,-5.35254 -3.44037,-7.40735 -2.00842,-2.88775 -1.8952,-5.32434 -0.14221,-8.26449 1.24878,-2.09455 2.49524,-4.60935 2.51935,-6.94919 0.19915,-19.33121 0.11255,-38.66534 0.11261,-57.9986 0,-1 -0.17792,-2.04248 0.0475,-2.98889 0.26331,-1.10574 0.8786,-2.12768 1.34119,-3.18597 0.55914,0.97693 1.30737,1.89749 1.6203,2.94775 0.2738,0.91855 0.0584,1.98297 0.0584,2.98297 1.2e-4,19.33325 0.003,38.66651 -0.003,57.99976 -8e-4,2.62756 -0.17634,4.89493 2.76635,6.76669 3.35578,2.13455 2.91925,6.10044 0.25336,9.10349 -1.60108,1.80359 -2.6294,4.11566 -4.36853,6.93408 2.96539,0.62152 4.33295,0.9082 5.7005,1.19482 -0.49719,0.17566 -0.99439,0.35126 -1.49164,0.52692 0.32288,2.51202 0.10828,5.27228 1.12109,7.4657 0.99561,2.15613 3.28046,3.69903 4.92475,5.57654 7.54791,8.61828 4.37073,18.17035 -6.79267,20.46881 -0.59149,0.12182 -1.19464,0.18689 -2.49639,0.38604 19.90588,26.31464 39.46344,52.16889 59.32214,78.42121 2.29938,-2.19538 4.42493,-4.22485 6.9906,-6.6745 21.07733,21.49536 42.11371,42.94897 63.59247,64.85376 -7.41608,4.03503 -6.67462,10.81543 -6.48615,17.52081 0.17707,6.30017 0.038,12.60913 0.038,19.22949 -38.23767,0 -76.11762,0 -114.49378,0 0,-7.26751 -0.29846,-14.40643 0.0904,-21.50762 0.33673,-6.14869 -0.36365,-11.57312 -7.14728,-15.56281 3.81146,-3.539 7.07013,-6.56476 10.57635,-9.84302 m -82.87976,-5.91449 c 0,4.08405 0,8.16809 0,12.16809 5.28229,0 9.96308,0 14.48438,0 0,-5.01324 0,-9.56311 0,-15.1784 -5.12372,0.74292 -9.78656,1.41907 -14.48438,3.01031 m 149.24964,12.63489 c 1.41339,-0.11383 2.82678,-0.22772 4.11767,-0.33179 0,-5.09039 0,-9.65082 0,-14.41058 -4.90875,0 -9.47937,0 -14.21374,0 0,4.94586 0,9.64313 0,14.74219 3.27697,0 6.23498,0 10.09607,1.8e-4 m -10.4729,12.08142 c 0,2.43158 0,4.8631 0,7.42035 5.1875,0 9.78564,0 14.57489,0 0,-4.91345 0,-9.61114 0,-14.44537 -4.9397,0 -9.50531,0 -14.57453,0 0,2.20825 0,4.16259 -3.6e-4,7.02502 m -151.1858,-7.26703 c -2.42785,0 -4.85571,0 -7.26458,0 0,5.30695 0,9.90631 0,14.52545 4.97088,0 9.67578,0 14.38305,0 0,-4.93426 0,-9.50427 0,-14.52526 -2.25061,0 -4.21643,0 -7.11847,-1.9e-4 m 146.33033,3.51544 c -0.9162,-1.17315 -1.73938,-3.25305 -2.76514,-3.35833 -3.89697,-0.39972 -7.85938,-0.16107 -11.80005,-0.16107 0,5.30743 0,10.01818 0,14.59313 4.96051,0 9.54486,0 14.56543,0 0,-3.57501 0,-6.86291 -2.4e-4,-11.07373 m -119.08991,-1.79162 c -0.67346,-0.56915 -1.32916,-1.60449 -2.02325,-1.6308 -4.10108,-0.15558 -8.211,-0.0767 -12.51929,-0.0767 0,5.16553 0,9.85785 0,14.6369 4.88037,0 9.45319,0 14.57111,0 0,-4.15863 0,-8.09216 -0.0286,-12.92944 m 119.07715,-17.37616 c 0.35876,-2.79016 -0.38873,-4.36231 -3.68408,-4.13465 -3.57355,0.24689 -7.17731,0.056 -10.90839,0.056 0,5.19355 0,9.88831 0,14.58411 4.89771,0 9.47211,0 14.59265,0 0,-3.34399 0,-6.44818 -1.8e-4,-10.50543 m -140.48095,-4.01208 c -4.27673,0 -8.55341,0 -13.06909,0 0,5.02875 0,9.74024 0,14.36176 4.97375,0 9.65869,0 14.92255,0 -0.32789,-4.98517 -0.62708,-9.53479 -1.85346,-14.36176 z"
   id="path3"
   style="fill:#ffffff;fill-opacity:1" /><path
   fill="#fcad06"
   opacity="1"
   stroke="none"
   d="m 768.31229,381.53426 c -1.56666,-0.97137 -3.5788,-1.88928 -3.63959,-2.92199 -0.32105,-5.45557 -0.1507,-10.94013 -0.1507,-16.75489 18.60516,0 36.83795,0 55.44788,0 0,6.29218 0,12.67328 0,19.50293 -2.72998,0 -5.4848,0 -8.84314,0 0,24.47333 0,48.51776 0,73.15473 -11.034,0 -21.53418,-0.69177 -31.89746,0.20239 -9.59381,0.8277 -15.88831,-2.27789 -21.85926,-9.88202 -11.61718,-14.79504 -24.3814,-28.68951 -36.67651,-42.95184 -0.21313,-0.24726 -0.50195,-0.4292 -1.17657,-0.99439 0,11.17109 0,22.00373 0,33.37207 2.63629,0 5.53961,0 8.78766,0 0,6.92261 0,13.32056 0,19.98829 -18.34235,0 -36.58173,0 -55.115,0 0,-6.42194 0,-12.68708 0,-19.54731 2.77521,0 5.65992,0 8.82611,0 0,-17.85412 0,-35.12079 0,-52.99243 -2.76312,0 -5.64935,0 -8.82232,0 0,-6.8595 0,-13.12439 0,-20.19928 1.64459,0 3.38562,0 5.12671,0 16.16607,0 32.33349,0.10718 48.49731,-0.0819 3.64569,-0.0427 6.09711,0.94208 8.50836,3.78485 12.4917,14.72724 25.21814,29.25525 38.43769,44.51642 0,-9.79895 0,-18.77356 0,-28.19519 -1.74726,0 -3.37177,0 -5.45117,-4.9e-4 z"
   id="path4" /><path
   fill="#fcad06"
   opacity="1"
   stroke="none"
   d="m 386.9501,452.1636 c -1.28613,1.09472 -2.55652,2.255 -3.83923,2.2688 -12.66431,0.13641 -25.33334,0.21252 -37.99344,-0.0553 -1.93488,-0.041 -4.32739,-1.48621 -5.66803,-3.01758 -13.60983,-15.5462 -27.04385,-31.2464 -40.53213,-46.89911 -0.96225,-1.1167 -1.96347,-2.19977 -3.44532,-3.85571 0,11.50195 0,22.34521 0,33.69549 2.74817,0.12043 5.66709,0.2483 8.87683,0.38892 0,6.54492 0,12.95905 0,19.5824 -18.44226,0 -36.69003,0 -55.19488,0 0,-6.50879 0,-12.77814 0,-19.63617 2.86737,0 5.76715,0 8.89438,0 0,-17.84876 0,-35.11463 0,-52.98358 -2.86698,0 -5.75754,0 -8.88809,0 0,-6.87 0,-13.14325 0,-19.65747 0.69418,-0.14667 1.47006,-0.45252 2.24645,-0.4538 17.83201,-0.03 35.66523,-0.12054 53.49436,0.10522 1.92715,0.0244 4.31964,1.4856 5.66852,3.01191 11.91693,13.48443 23.64462,27.13604 35.43512,40.73236 1.06878,1.23248 2.18554,2.4234 3.79641,4.20453 0,-9.58002 0,-18.44245 0,-27.83234 -2.76242,0 -5.66992,0 -8.92968,0 0,-6.90881 0,-13.30109 0,-19.97485 18.36862,0 36.61029,0 55.16339,0 0,6.48266 0,12.86309 0,19.68664 -2.92279,0 -5.67987,0 -9.07459,0 0,23.69696 0,46.96008 -0.0101,70.68964 z"
   id="path5" /><path
   fill="#fcad05"
   opacity="1"
   stroke="none"
   d="M 27.1465,450.61178 C 5.6324,441.42971 -1.04985,422.32009 1.6382,399.62203 4.02035,379.5068 15.89264,367.28182 35.12802,362.74172 c 24.20006,-5.71197 48.23408,-4.09393 71.84564,3.88507 3.4513,1.16632 4.53089,2.93531 4.41651,6.49793 -0.26597,8.28302 -0.0847,16.58044 -0.0847,25.13818 -12.83682,0 -25.24101,0 -38.21436,0 0,-3.07287 0.11414,-6.02697 -0.0237,-8.96924 -0.28748,-6.13495 -3.60011,-8.74994 -10.87218,-8.75555 -7.34652,-0.006 -10.82223,2.57843 -10.89572,8.67859 -0.15053,12.49548 -0.14689,24.9953 -0.005,37.49096 0.0712,6.28083 3.60016,8.85639 11.29631,8.77967 7.32824,-0.0731 10.31278,-2.60474 10.50788,-9.02259 0.085,-2.79687 0.0143,-5.59844 0.0143,-8.67333 12.78682,0 25.19158,0 38.18471,0 0,9.3692 0.14981,18.64361 -0.17261,27.90167 -0.0448,1.28717 -2.20156,3.08056 -3.74499,3.64734 -17.81961,6.54321 -36.33321,8.34082 -55.07584,6.53827 -8.35202,-0.80323 -16.53364,-3.37836 -25.15745,-5.26691 z"
   id="path6" /><path
   fill="#125B64"
   opacity="1"
   stroke="none"
   d="m 211.86816,390.81222 c 9.40607,9.65753 18.56574,19.06158 28.25583,29.01019 -7.44592,4.091 -5.88492,10.90265 -5.91446,17.23474 -0.0278,5.96613 -0.006,11.9325 -0.006,18.17688 -37.01605,0 -73.72812,0 -111.07086,0 0,-6.87469 -0.13428,-13.80206 0.0422,-20.72156 0.14283,-5.59906 0.4433,-11.1112 -6.12173,-14.53436 20.73233,-21.25421 41.02857,-42.0614 60.04507,-61.55664 11.64713,10.84204 23.0853,21.48963 34.76993,32.39075 M 164.18,399.02877 c -0.93771,0.81635 -2.61938,1.57721 -2.68515,2.45862 -0.29425,3.94379 -0.12802,7.92193 -0.12802,12.19922 5.11368,0 9.84885,0 14.74991,0 0,-4.86725 0,-9.4953 0,-14.66266 -3.78067,0 -7.40808,0 -11.93674,0.005 m 18.01856,19.94159 c -0.44495,4.7619 -0.88993,9.5238 -1.35035,14.45099 5.60688,0 10.29764,0 14.96421,0 0,-4.97125 0,-9.64551 0,-14.58417 -4.47727,0 -8.59125,0 -13.61386,0.13318 m -9.60877,14.74493 c 1.23016,-0.64263 3.46442,-1.20349 3.52448,-1.94134 0.34222,-4.2041 0.16601,-8.45044 0.16601,-12.65228 -5.34524,0 -9.9151,0 -14.69604,0 0,4.88482 0,9.45422 0,14.59399 3.48712,0 6.75982,0 11.00555,-3.7e-4 m 14.13001,-19.78198 c 3.0708,0 6.1416,0 9.18817,0 0,-5.32184 0,-9.90924 0,-14.46411 -4.96979,0 -9.66886,0 -14.38166,0 0,4.95703 0,9.53192 0,14.26404 1.59546,0.0758 2.90531,0.138 5.19349,0.20007 z"
   id="path7"
   style="fill:#ffffff;fill-opacity:1" /><path
   fill="#145D66"
   opacity="1"
   stroke="none"
   d="m 49.05871,164.86669 c 0.79755,-0.37564 1.37774,-0.36694 2.24775,-0.3595 4.24461,0.61426 8.19938,1.22977 12.71072,1.93192 0,9.71921 0,19.7872 0,30.11273 3.09956,0 5.69009,0 8.78848,0 0,-6.2254 0,-12.4692 0,-18.78146 10.3405,1.56879 21.89292,16.90607 22.61853,29.72351 6.74715,0.53409 3.99785,5.27023 4.09963,9.50818 -7.76081,0 -15.22479,0.23907 -22.66355,-0.0909 -4.36189,-0.19349 -7.81649,0.80889 -10.38139,4.39074 -2.66508,3.72183 -6.19493,5.13135 -10.77661,4.56168 -2.78894,-0.3468 -5.67627,-0.28055 -8.48413,-0.0199 -6.29091,0.58398 -11.73938,-0.10742 -15.00682,-6.64938 -0.62541,-1.25217 -3.27365,-2.05649 -5.01099,-2.09644 -8.95689,-0.2059 -17.92105,-0.0955 -27.20033,-0.0955 0,-3.00732 0,-5.6001 0,-8.5918 1.8193,-0.21533 3.74042,-0.44271 5.92123,-0.70083 0.22321,-15.37625 9.98921,-24.42508 22.29584,-32.99252 0,7.6477 0,14.47717 0,21.70343 3.15958,0 5.74249,0 8.89786,0 0,-9.80723 0,-19.8639 0,-30.25647 4.2613,-0.33182 7.99385,-0.62244 11.94378,-1.2974 z"
   id="path8"
   style="fill:#ffffff;fill-opacity:1" /><path
   fill="#145C65"
   opacity="1"
   stroke="none"
   d="m 183.9537,344.77932 c 12.0503,5.65381 23.76133,11.14069 35.73621,16.75116 1.07141,11.49591 2.16675,23.24847 3.16733,33.98456 -14.46329,-13.6059 -29.48761,-27.73957 -43.96283,-41.35669 -13.8151,12.93066 -28.19721,26.39197 -42.30902,39.60034 2.22656,-21.82465 4.53787,-44.4801 6.92279,-67.85687 13.70681,6.39459 26.90652,12.55255 40.44552,18.8775 z"
   id="path9"
   style="fill:#ffffff;fill-opacity:1" /><path
   fill="#135C65"
   opacity="1"
   stroke="none"
   d="m 213.79233,300.51937 c 1.86319,18.85358 3.72638,37.70716 5.69525,57.63037 -23.70291,-11.10131 -46.59146,-21.82116 -70.47544,-33.00726 21.45896,-8.42786 42.00751,-16.49817 63.18155,-24.58795 0.94974,-0.0316 1.27414,-0.0368 1.59864,-0.0352 z"
   id="path10"
   style="fill:#ffffff;fill-opacity:1" /><path
   fill="#135C65"
   opacity="1"
   stroke="none"
   d="m 213.79028,300.0859 c -0.32245,0.43182 -0.64685,0.43707 -1.21399,0.4635 -1.34903,-0.96619 -2.29513,-2.4173 -3.58548,-2.85602 -17.93768,-6.09887 -35.92303,-12.05743 -53.89444,-18.05731 -0.92386,-0.30847 -1.82635,-0.68085 -3.70392,-1.38586 19.405,-11.20337 38.09775,-21.99561 57.51853,-33.20813 1.6676,18.67199 3.27243,36.64117 4.8793,55.04382 z"
   id="path11"
   style="fill:#ffffff;fill-opacity:1" /><path
   fill="#135C65"
   opacity="1"
   stroke="none"
   d="m 189.71924,237.04989 c 4.92361,2.3894 9.52646,4.58551 14.77371,7.08905 -18.68997,10.7818 -36.85126,21.25861 -55.90628,32.25098 1.94775,-19.20307 3.78561,-37.3227 5.70312,-56.22791 11.96906,5.69144 23.53885,11.19305 35.42945,16.88788 z"
   id="path12"
   style="fill:#ffffff;fill-opacity:1" /><path
   fill="#145C65"
   opacity="1"
   stroke="none"
   d="m 151.29355,281.52743 c 17.97512,5.9837 35.56848,11.87994 54.30987,18.16101 -21.08365,8.28479 -41.03482,16.12457 -61.8706,24.31195 1.51281,-14.90283 2.94781,-29.03894 4.40457,-43.38959 1.23804,0.37 2.00619,0.59961 3.15616,0.91663 z"
   id="path13"
   style="fill:#ffffff;fill-opacity:1" /><path
   fill="#135C65"
   opacity="1"
   stroke="none"
   d="m 198.60315,237.99068 c -13.58979,-6.53039 -26.85993,-12.86669 -40.88657,-19.56423 15.74298,-8.99418 30.65375,-17.51288 46.19876,-26.39396 1.58536,17.10245 3.10779,33.52607 4.69284,50.62519 -3.70938,-1.71308 -6.69735,-3.09302 -10.00503,-4.667 z"
   id="path14"
   style="fill:#ffffff;fill-opacity:1" /><path
   fill="#145D66"
   opacity="1"
   stroke="none"
   d="m 162.69858,167.35979 c 12.26318,7.58369 24.52639,15.16736 37.61038,23.25861 -15.42441,8.83008 -30.03375,17.19354 -45.63101,26.12259 1.69839,-16.6896 3.31823,-32.60757 5.58026,-48.88782 1.24154,-0.40594 1.84097,-0.44967 2.44037,-0.49338 z"
   id="path15"
   style="fill:#ffffff;fill-opacity:1" /><path
   fill="#125B64"
   opacity="1"
   stroke="none"
   d="m 223.61246,497.24783 c -0.82142,-0.12153 -1.99277,-0.0548 -2.36353,0.52447 -3.03546,4.74243 -5.92175,9.58032 -9.28003,15.08911 -3.70611,-6.0133 -7.10763,-11.53235 -11.33496,-18.39136 0,9.15516 0,16.81495 0,24.75416 -2.75974,0 -4.98218,0 -7.45373,0 0,-12.8545 0,-25.57337 0,-38.21991 5.25183,-1.68238 8.53686,-0.0811 10.85696,4.79278 2.05948,4.32642 4.91781,8.27258 7.91431,13.19232 2.78106,-4.59424 5.66391,-8.57562 7.71386,-12.94751 2.3794,-5.07458 5.85862,-6.6596 11.2761,-5.1203 0,12.67273 0,25.41126 0,38.36744 -2.39844,0 -4.63181,0 -7.3079,0 0,-7.35175 0,-14.48359 -0.0211,-22.0412 z"
   id="path16"
   style="fill:#ffffff;fill-opacity:1" /><path
   fill="#155D66"
   opacity="1"
   stroke="none"
   d="m 137.16318,485.4017 c 4.05401,5.72735 7.92428,11.13922 11.81378,16.53717 0.15228,0.21136 0.48868,0.29004 1.23572,0.7088 0,-7.30927 0,-14.34271 0,-21.75629 2.82019,0 5.17254,0 7.75244,0 0,12.78479 0,25.53992 0,38.23621 -3.88507,1.24524 -6.22806,-0.0976 -8.32276,-3.36322 -4.07742,-6.35651 -8.60446,-12.42463 -13.98132,-18.26813 0,7.19525 0,14.3905 0,21.80267 -2.80524,0 -5.0781,0 -7.5531,0 0,-12.87555 0,-25.64355 0,-38.35473 4.53821,-1.75141 6.91168,0.76709 9.05524,4.45752 z"
   id="path17"
   style="fill:#ffffff;fill-opacity:1" /><path
   fill="#155D66"
   opacity="1"
   stroke="none"
   d="m 300.29568,487.43496 c 5.56257,7.87927 5.8245,15.77075 1.06415,23.61237 -4.23227,6.97168 -12.70087,10.78277 -20.05176,9.28271 -8.75985,-1.78735 -14.48694,-7.00415 -16.72091,-15.74628 -2.23313,-8.73895 2.26117,-18.47351 10.37854,-22.78082 8.483,-4.50128 17.69265,-2.54022 25.32998,5.63202 m -20.48398,24.35938 c 9.02829,2.10552 16.28983,-2.15107 17.19062,-10.07679 0.7449,-6.55383 -3.28498,-12.52209 -9.42612,-13.9599 -6.2041,-1.45263 -12.62359,1.58039 -14.96347,7.06977 -2.77396,6.50775 -0.37475,12.71991 7.19897,16.96692 z"
   id="path18"
   style="fill:#ffffff;fill-opacity:1" /><path
   fill="#125B64"
   opacity="1"
   stroke="none"
   d="m 337.94168,485.5964 c 0,-1.80902 0,-3.12628 0,-4.97626 5.95047,0 11.80966,-0.69049 17.43719,0.15704 9.10981,1.37201 13.02234,10.57691 7.10059,18.08509 1.3717,2.953 3.33765,5.59283 3.78381,8.46844 1.0116,6.52106 -3.67993,11.48206 -10.7659,12.17011 -0.65884,0.064 -1.32885,0.0146 -1.99368,0.0147 -4.96487,5.5e-4 -9.92978,3e-4 -15.56201,3e-4 0,-11.31799 0,-22.37286 0,-33.91937 m 7.53592,26.04571 c 3.3847,0.26721 6.81738,0.96039 10.13006,0.58753 1.28751,-0.14484 3.32709,-2.80664 3.18451,-4.12268 -0.17675,-1.63184 -2.04791,-4.03058 -3.56979,-4.36695 -3.09241,-0.68353 -6.4418,-0.20428 -9.84879,-0.20428 0,2.89612 0,5.0484 0.10401,8.10638 m 11.7023,-17.95855 c 1.39468,-5.49988 -1.92188,-7.49323 -11.59503,-5.47217 0,2.58514 0,5.18365 0,9.22998 4.10477,-1.0777 7.69522,-2.02027 11.59503,-3.75781 z"
   id="path19"
   style="fill:#ffffff;fill-opacity:1" /><path
   fill="#125B64"
   opacity="1"
   stroke="none"
   d="m 611.39468,511.67764 c 0,2.75842 0,5.04803 0,7.58526 -2.47748,0 -4.57654,0 -7.06604,0 0,-12.60077 0,-25.30291 0,-38.40832 5.79248,0 11.89246,-0.50501 17.86536,0.14929 5.42206,0.59405 8.815,4.52154 9.93323,9.82751 1.29589,6.14899 -1.60816,10.5752 -7.14539,13.99927 2.7417,4.71802 5.43866,9.35913 8.2099,14.12805 -5.48804,1.76044 -8.76746,0.19574 -11.1413,-4.89587 -1.86346,-3.99701 -3.25915,-9.79791 -10.46545,-6.99768 -0.0563,1.22479 -0.12329,2.68426 -0.19031,4.61249 m 11.57752,-22.73896 c -3.70295,-0.64093 -7.40589,-1.2818 -11.28376,-1.953 0,4.86926 0,8.57538 0,12.24719 12.03907,1.03308 15.41645,-1.82385 11.28376,-10.29419 z"
   id="path20"
   style="fill:#ffffff;fill-opacity:1" /><path
   fill="#155D66"
   opacity="1"
   stroke="none"
   d="m 567.30508,519.52187 c -5.41766,0.36896 -3.58557,-4.61279 -6.19531,-6.99804 -3.8598,0 -8.33295,-0.11286 -12.7923,0.0845 -1.03167,0.0456 -2.46319,0.90997 -2.94909,1.80914 -2.83734,5.25055 -2.76081,5.29187 -9.78272,4.83039 2.01764,-5.84632 3.97382,-11.54627 5.95215,-17.23859 2.17944,-6.27087 4.56909,-12.47699 6.49603,-18.82397 1.09552,-3.60852 3.70508,-2.59974 6.00751,-2.64899 2.20038,-0.0471 4.38129,-0.64935 5.48285,2.66418 3.97491,11.95716 8.34131,23.78418 12.70404,36.06641 -1.70087,0.0966 -3.09814,0.17584 -4.92316,0.255 m -9.29724,-18.30871 c -1.31097,-3.64545 -2.62201,-7.29089 -4.2279,-11.75629 -1.93158,5.86939 -3.54383,10.76843 -5.17804,15.73413 3.94696,0 7.14972,0 10.682,0 -0.46185,-1.33587 -0.78143,-2.26019 -1.27606,-3.97784 z"
   id="path21"
   style="fill:#ffffff;fill-opacity:1" /><path
   fill="#155D66"
   opacity="1"
   stroke="none"
   d="m 714.20328,517.67672 c -2.75891,1.06073 -5.41425,1.71546 -9.04969,2.61188 4.95154,-14.12403 9.44129,-26.93097 13.87317,-39.57263 9.33051,-0.53998 9.35211,-0.54767 12.24195,7.58453 3.60968,10.15802 7.17926,20.33026 10.90265,30.88312 -2.77063,0 -5.2912,0 -8.05066,0 -0.75666,-2.00849 -1.56659,-4.15827 -2.50965,-6.66162 -3.59155,0 -7.26507,0.31445 -10.8595,-0.0844 -3.95111,-0.43847 -5.80596,1.20887 -6.54827,5.23914 m 7.22326,-21.34344 c -0.90326,2.9367 -1.80646,5.87347 -2.74981,8.94085 3.74768,0 6.99334,0 10.67303,0 -1.8089,-5.24591 -3.4903,-10.12207 -5.46796,-15.85748 -0.95782,2.78259 -1.55017,4.50342 -2.45526,6.91663 z"
   id="path22"
   style="fill:#ffffff;fill-opacity:1" /><path
   fill="#105A63"
   opacity="1"
   stroke="none"
   d="m 449.38943,501.483 c 0,3.79833 0,7.10162 0,10.94598 5.06067,0 9.79645,0 14.7063,0 0,2.49548 0,4.44909 0,6.74383 -7.15777,0 -14.38379,0 -21.88135,0 0,-12.76275 0,-25.48285 0,-38.43157 2.27521,0 4.37604,0 7.17505,0 0,6.73815 0,13.49249 0,20.74176 z"
   id="path23"
   style="fill:#ffffff;fill-opacity:1" /><path
   fill="#105A63"
   opacity="1"
   stroke="none"
   d="m 665.94681,512.45638 c -6e-5,-10.79034 -6e-5,-21.08661 -6e-5,-31.66137 2.54547,0 4.76861,0 7.21954,0 0,12.77685 0,25.38342 0,38.354 -2.13306,0 -4.3551,0 -7.21948,0 0,-2.01099 0,-4.1048 0,-6.69263 z"
   id="path24"
   style="fill:#ffffff;fill-opacity:1" /><path
   fill="#105A63"
   opacity="1"
   stroke="none"
   d="m 504.38943,503.5107 c 0,5.47046 0,10.44147 0,15.70557 -2.51111,0 -4.73376,0 -7.20239,0 0,-12.84625 0,-25.56213 0,-38.49036 2.33637,0 4.43585,0 7.20239,0 0,7.4491 0,14.86725 0,22.78479 z"
   id="path25"
   style="fill:#ffffff;fill-opacity:1" /><path
   fill="#105A63"
   opacity="1"
   stroke="none"
   d="m 407.38943,501.51217 c 0,6.13709 0,11.77447 0,17.70398 -2.51104,0 -4.73364,0 -7.20263,0 0,-12.84595 0,-25.56177 0,-38.49011 2.33624,0 4.43573,0 7.20263,0 0,6.77978 0,13.53308 0,20.78613 z"
   id="path26"
   style="fill:#ffffff;fill-opacity:1" /><path
   fill="#105A63"
   opacity="1"
   stroke="none"
   d="m 85.95758,482.69491 c 2.17323,-1.24561 4.33818,-2.00806 7.12509,-2.98956 0,13.8294 0,26.54895 0,39.53863 -2.27104,0 -4.49477,0 -7.13339,0 0,-12.16223 0,-24.11407 0.008,-36.54907 z"
   id="path27"
   style="fill:#ffffff;fill-opacity:1" /><path
   fill="#145C65"
   opacity="1"
   stroke="none"
   d="m 162.42575,167.02941 c -0.32657,0.37409 -0.926,0.41782 -1.97577,0.47257 0.26736,-0.26032 0.98514,-0.53162 1.97577,-0.47257 z"
   id="path28"
   style="fill:#ffffff;fill-opacity:1" /><path
   fill="#FCFDFD"
   opacity="1"
   stroke="none"
   d="m 155.7092,36.05166 c 8.12823,-10.31888 16.02649,-20.36377 24.34759,-30.94641 20.36188,31.01321 40.41959,61.56314 60.88629,92.73605 -44.73373,0 -88.75924,0 -133.79895,0 16.25165,-20.68332 32.29337,-41.09949 48.56507,-61.78964 z"
   id="path29"
   style="fill:#ffffff;fill-opacity:1" /><path
   fill="#FFFFFF"
   opacity="1"
   stroke="none"
   d="m 172.03091,8.37515 c 0.49192,-0.3375 0.98383,-0.67496 1.47577,-1.01239 -0.11737,0.51879 -0.23477,1.03759 -0.73541,1.5097 -0.50232,-0.1969 -0.62134,-0.34711 -0.74036,-0.49731 z"
   id="path30"
   style="fill:#ffffff;fill-opacity:1" /><path
   fill="#FFFFFF"
   opacity="1"
   stroke="none"
   d="m 172.53012,9.07568 c 0.0595,0.42618 -0.0548,0.57873 -0.3158,0.79269 -0.35544,-0.0447 -0.59591,-0.17444 -1.16226,-0.55334 -0.0625,-0.46045 0.20084,-0.67176 0.72153,-0.91147 0.37634,0.12179 0.49536,0.272 0.75653,0.67212 z"
   id="path31"
   style="fill:#ffffff;fill-opacity:1" /><path
   fill="#FFFFFF"
   opacity="1"
   stroke="none"
   d="m 184.03024,4.61037 c -0.12176,-0.17626 -0.0183,-0.61804 0.34778,-0.95269 0.13419,0.30044 0.006,0.49386 -0.34778,0.95269 z"
   id="path32"
   style="fill:#ffffff;fill-opacity:1" />


















</svg>
